<svg width="40" height="31" viewBox="0 0 40 31" fill="none" xmlns="http://www.w3.org/2000/svg">
<g clip-path="url(#clip0_20_431)">
<path d="M33.3075 26.5715H0.518555V31H39.1392V26.5715H33.3075ZM37.2082 24.3572C36.6868 15.345 30.9323 7.97143 23.382 6.17785C23.5751 5.64643 23.691 5.04857 23.691 4.42857C23.691 1.99285 21.953 0 19.8289 0C17.7048 0 15.9668 1.99285 15.9668 4.42857C15.9668 5.04857 16.0827 5.64643 16.2758 6.17785C8.72546 7.97143 2.97097 15.345 2.44959 24.3572H37.2082ZM19.8289 10.1414C25.5254 10.1414 30.3917 14.1936 32.3806 19.9065H7.27718C9.26615 14.1936 14.1323 10.1414 19.8289 10.1414Z" fill="#F4CE14"/>
</g>
<defs>
<clipPath id="clip0_20_431">
<rect width="40" height="31" fill="white"/>
</clipPath>
</defs>
</svg>
